<!-- Generated by IcoMoon.io -->
<svg version="1.1" xmlns="http://www.w3.org/2000/svg" width="16" height="16" viewBox="0 0 16 16">
<title>ActiveDirectory</title>
<path d="M7 0c-0.554 0-1 0.446-1 1h-2v5c-0.554 0-1 0.446-1 1h-2v5c-0.554 0-1 0.446-1 1v1c0 0.554 0.446 1 1 1h1c0.554 0 1-0.446 1-1v-1c0-0.554-0.446-1-1-1v-4h1c0 0.554 0.446 1 1 1h1c0.554 0 1-0.446 1-1h1v4c-0.554 0-1 0.446-1 1v1c0 0.554 0.446 1 1 1h1c0.554 0 1-0.446 1-1v-1c0-0.554-0.446-1-1-1v-5h-2c0-0.554-0.446-1-1-1v-4h1c0 0.554 0.446 1 1 1h1c0.554 0 1-0.446 1-1h1v4c-0.554 0-1 0.446-1 1v1c0 0.554 0.446 1 1 1h1c0.554 0 1-0.446 1-1h1v4c-0.554 0-1 0.446-1 1v1c0 0.554 0.446 1 1 1h1c0.554 0 1-0.446 1-1v-1c0-0.554-0.446-1-1-1v-5h-2c0-0.554-0.446-1-1-1v-5h-2c0-0.554-0.446-1-1-1h-1zM7 1h1v1h-1v-1zM4 7h1v1h-1v-1zM10 7h1v1h-1v-1zM1 13h1v1h-1v-1zM7 13h1v1h-1v-1zM13 13h1v1h-1v-1z"></path>
</svg>
