<!-- Generated by IcoMoon.io -->
<svg version="1.1" xmlns="http://www.w3.org/2000/svg" width="16" height="16" viewBox="0 0 16 16">
<title>Icon</title>
<path d="M8 0c-4.418 0-8 3.582-8 8s3.582 8 8 8 8-3.582 8-8-3.582-8-8-8zM8 1.25c3.728 0 6.75 3.022 6.75 6.75s-3.022 6.75-6.75 6.75c-3.728 0-6.75-3.022-6.75-6.75s3.022-6.75 6.75-6.75zM6.363 1.951c-0.085 0.011-0.169 0.034-0.246 0.072-0.618 0.307-0.696 1.408-0.174 2.459s1.446 1.655 2.064 1.348c0.618-0.307 0.695-1.408 0.174-2.459-0.457-0.92-1.22-1.496-1.818-1.42zM10.1 2.566c-0.086-0.001-0.172 0.013-0.254 0.041-0.654 0.221-0.878 1.3-0.502 2.412s1.211 1.835 1.865 1.613c0.654-0.221 0.878-1.303 0.502-2.414-0.329-0.973-1.008-1.647-1.611-1.652zM3.57 3.824c-0.183 0.018-0.347 0.081-0.477 0.195-0.518 0.457-0.307 1.542 0.469 2.422s1.824 1.224 2.342 0.768c0.518-0.457 0.309-1.542-0.467-2.422-0.582-0.66-1.317-1.018-1.867-0.963zM8.137 7.186c-0.199 0.014-0.527 0.036-0.727 0.242-0.222 0.111-0.304 0.322-0.467 0.543-0.146 0.198-0.118 0.386-0.154 0.629-0.108 0.731 0.107 0.928 0.107 1.928 0 0.559-0.561 1.124-0.379 1.852 0.25 1 0.436 1.147 0.916 1.467s1.175 0.512 1.703 0.283c0.39-0.169 0.328-0.867 0.707-1.060 0.569-0.29 1.003-0.173 1.498-0.576 0.487-0.397 0.264-0.779 0.723-1.207 0.368-0.344 1.121-0.204 1.469-0.568 0.474-0.496 0.266-1.256-0.037-1.871-0.201-0.409-0.866-0.497-1.297-0.645-0.676-0.232-1.022 0.108-1.701-0.117-0.668-0.221-0.878-0.563-1.559-0.738-0.187-0.048-0.604-0.174-0.803-0.16zM2.795 7.561c-0.303 0.022-0.556 0.135-0.711 0.342-0.414 0.552 0.012 1.571 0.951 2.275s2.035 0.826 2.449 0.273c0.414-0.552-0.011-1.569-0.949-2.273-0.587-0.44-1.235-0.654-1.74-0.617z"></path>
</svg>
