<!-- Generated by IcoMoon.io -->
<svg version="1.1" xmlns="http://www.w3.org/2000/svg" width="16" height="16" viewBox="0 0 16 16">
<title>NotificationBell</title>
<path d="M8 0.801c-1.105 0-2 0.895-2 2v0c0 0.128 0.012 0.253 0.035 0.374l-0.002-0.012c-0.969 0.74-1.614 2.089-1.627 3.994-1.406 2.645-3.617 1.645-3.617 5.695 0 1.072 2.4 1.969 5.611 2.195 0.303 0.568 0.901 0.953 1.59 0.953s1.285-0.385 1.588-0.953c3.212-0.226 5.611-1.123 5.611-2.195v-0.010l0.021 0.010c0-4.050-2.211-3.051-3.754-5.857-0.11-1.928-0.684-3.119-1.498-3.791 0.026-0.121 0.041-0.26 0.041-0.402v-0c0-1.105-0.895-2-2-2v0zM8 1.801c0.552 0 1 0.448 1 1v0c0 0.552-0.448 1-1 1v0c-0.552 0-1-0.448-1-1v0c0-0.552 0.448-1 1-1v0zM7.988 11.586c1.629 0 3.2 0.178 4.42 0.504 1.049 0.28 1.551 0.594 1.734 0.762-0.184 0.167-0.685 0.479-1.734 0.76-0.763 0.203-1.662 0.35-2.627 0.432-0.080-0.92-0.852-1.641-1.793-1.641s-1.712 0.721-1.793 1.641c-0.965-0.081-1.862-0.228-2.625-0.432-1.049-0.28-1.553-0.592-1.736-0.76 0.184-0.167 0.687-0.481 1.736-0.762 1.22-0.326 2.789-0.504 4.418-0.504z"></path>
</svg>
