<!-- Generated by IcoMoon.io -->
<svg version="1.1" xmlns="http://www.w3.org/2000/svg" width="16" height="16" viewBox="0 0 16 16">
<title>OpenConnection</title>
<path d="M10.806 1.772c-0.485-0.494-1.194-0.58-1.589-0.192l-2.141 2.101-0.875-0.892-0.714 0.7 7.003 7.138 0.714-0.7-0.875-0.892 2.141-2.101c0.395-0.388 0.323-1.098-0.162-1.593s-1.194-0.58-1.589-0.192l-2.141 2.101-1.751-1.785 2.141-2.101c0.395-0.388 0.323-1.098-0.162-1.593zM4.772 4.19l-0.714 0.7 0.7 0.714c-0.908 1.034-1.122 2.478-0.919 3.704l-1.963 1.926c-0.791 0.776-0.803 2.037-0.027 2.828s2.037 0.803 2.828 0.027l1.963-1.926c1.221 0.226 2.669 0.040 3.721-0.848l0.7 0.714 0.714-0.7z"></path>
</svg>
