<!-- Generated by IcoMoon.io -->
<svg version="1.1" xmlns="http://www.w3.org/2000/svg" width="16" height="16" viewBox="0 0 16 16">
<title>Refresh</title>
<path d="M14.048 4.741l-3.567-0.249 0.571-0.917c-1.181-0.739-2.58-0.974-3.939-0.661s-2.513 1.136-3.253 2.317c-0.739 1.181-0.974 2.58-0.661 3.939s1.136 2.513 2.317 3.253c1.181 0.739 2.58 0.974 3.939 0.661s2.513-1.136 3.253-2.317c0.062-0.099 0.119-0.199 0.174-0.301l1.533 0.822c-0.916 1.705-2.535 3.022-4.569 3.491-3.744 0.863-7.479-1.474-8.342-5.218s1.474-7.479 5.218-8.342c1.872-0.431 3.742-0.062 5.251 0.882l0.625-0.841z"></path>
</svg>
