<!-- Generated by IcoMoon.io -->
<svg version="1.1" xmlns="http://www.w3.org/2000/svg" width="16" height="16" viewBox="0 0 16 16">
<title>Root</title>
<path d="M7.5 0v0.025c-4.021 0.26-7.218 3.455-7.481 7.451l-0.001 0.024h-0.018v1h0.025c0.26 4.021 3.455 7.218 7.451 7.481l0.024 0.001v0.018h1v-0.025c4.021-0.26 7.218-3.455 7.481-7.451l0.001-0.024h0.018v-1h-0.025c-0.26-4.021-3.455-7.218-7.451-7.481l-0.024-0.001v-0.018h-1zM8.5 1.027c0.637 0.046 1.229 0.17 1.789 0.362l-0.049-0.015c0.412 0.565 0.758 1.253 1.034 2.046l0.009 0.026c-0.815-0.235-1.762-0.39-2.759-0.431l-0.024-0.001v-1.988zM7.5 1.029v1.986c-1.022 0.040-1.971 0.195-2.837 0.442l0.050-0.013c0.287-0.818 0.635-1.505 1.035-2.051l0.014-0.018c0.51-0.178 1.102-0.302 1.715-0.346l0.023-0.001zM4.908 1.725c-0.451 0.571-0.832 1.246-1.134 2.008l-0.012 0.033c-0.786 0.308-1.454 0.68-2.010 1.111l-0.012 0.010c0.695-1.378 1.788-2.47 3.128-3.144l0.040-0.018zM11.113 1.74c1.378 0.695 2.47 1.788 3.144 3.128l0.018 0.040c-0.571-0.451-1.246-0.832-2.008-1.134l-0.033-0.012c-0.308-0.786-0.68-1.454-1.111-2.010l-0.010-0.012zM7.496 4.008c0.001 0 0.001 0 0.002 0s0.001 0 0.002 0h-0v3.492h-3.486c0.036-1.134 0.185-2.182 0.425-3.124l-0.010 0.045c0.893-0.228 1.938-0.377 3.044-0.413l0.024-0.001zM8.5 4.014c1.134 0.036 2.182 0.185 3.124 0.425l-0.045-0.010c0.228 0.894 0.377 1.941 0.413 3.049l0.001 0.024h-3.492v-3.486zM12.555 4.713c0.818 0.287 1.505 0.635 2.051 1.035l0.018 0.014c0.178 0.51 0.302 1.102 0.346 1.715l0.001 0.023h-1.986c-0.040-1.022-0.195-1.971-0.442-2.837l0.013 0.050zM3.447 4.717c-0.235 0.815-0.39 1.762-0.431 2.759l-0.001 0.024h-1.988c0.046-0.637 0.17-1.229 0.362-1.789l-0.015 0.049c0.565-0.412 1.253-0.758 2.046-1.034l0.026-0.009zM1.029 8.5h1.986c0.040 1.022 0.195 1.971 0.442 2.837l-0.013-0.050c-0.818-0.287-1.505-0.635-2.051-1.035l-0.018-0.014c-0.178-0.51-0.302-1.102-0.346-1.715l-0.001-0.023zM4.008 8.5h3.492v3.486c-1.134-0.036-2.182-0.185-3.124-0.425l0.045 0.010c-0.228-0.894-0.377-1.941-0.413-3.049l-0.001-0.024zM8.5 8.5h3.486c-0.036 1.134-0.185 2.182-0.425 3.124l0.010-0.045c-0.894 0.228-1.941 0.377-3.049 0.413l-0.024 0.001v-3.492zM12.984 8.5h1.988c-0.046 0.637-0.17 1.229-0.362 1.789l0.015-0.049c-0.565 0.412-1.253 0.758-2.046 1.034l-0.026 0.009c0.235-0.815 0.39-1.762 0.431-2.759l0.001-0.024zM1.725 11.092c0.571 0.451 1.246 0.832 2.008 1.134l0.033 0.012c0.308 0.786 0.68 1.454 1.111 2.009l0.010 0.012c-1.378-0.695-2.47-1.788-3.144-3.128l-0.018-0.040zM14.26 11.113c-0.695 1.378-1.788 2.47-3.128 3.144l-0.040 0.018c0.451-0.571 0.832-1.246 1.134-2.008l0.012-0.033c0.786-0.308 1.454-0.68 2.010-1.111l0.012-0.010zM4.717 12.553c0.815 0.235 1.762 0.39 2.759 0.431l0.024 0.001v1.988c-0.637-0.046-1.229-0.17-1.789-0.362l0.049 0.015c-0.412-0.565-0.758-1.253-1.034-2.046l-0.009-0.026zM11.287 12.555c-0.287 0.818-0.635 1.505-1.035 2.051l-0.014 0.018c-0.51 0.178-1.102 0.302-1.715 0.346l-0.023 0.001v-1.986c1.022-0.040 1.971-0.195 2.837-0.442l-0.050 0.013z"></path>
</svg>
