<!-- Generated by IcoMoon.io -->
<svg version="1.1" xmlns="http://www.w3.org/2000/svg" width="16" height="16" viewBox="0 0 16 16">
<title>Search</title>
<path d="M1.433 12.913l3.316-2.82c0.343-0.309 0.71-0.45 1.005-0.437-0.783-0.917-1.256-2.106-1.256-3.406 0-2.9 2.35-5.25 5.25-5.25s5.25 2.35 5.25 5.25c0 2.9-2.35 5.25-5.25 5.25-1.3 0-2.49-0.473-3.407-1.256 0.014 0.296-0.128 0.662-0.437 1.005l-2.82 3.316c-0.483 0.536-1.271 0.582-1.753 0.101s-0.436-1.271 0.101-1.753zM9.75 9.749c1.933 0 3.5-1.567 3.5-3.5s-1.567-3.5-3.5-3.5c-1.933 0-3.5 1.567-3.5 3.5s1.567 3.5 3.5 3.5z"></path>
</svg>
