<!-- Generated by IcoMoon.io -->
<svg version="1.1" xmlns="http://www.w3.org/2000/svg" width="16" height="16" viewBox="0 0 16 16">
<title>SettingsAlt2</title>
<path d="M8 0c-4.418 0-8 3.582-8 8v0c0 4.418 3.582 8 8 8v0c4.418 0 8-3.582 8-8v0c0-4.418-3.582-8-8-8v0zM8 1c3.866 0 7 3.134 7 7v0c0 3.866-3.134 7-7 7v0c-3.866 0-7-3.134-7-7v0c0-3.866 3.134-7 7-7v0zM10.023 4.023c-0.926 0.001-1.704 0.631-1.93 1.486l-0.003 0.014h-5.066c-0.009-0.001-0.019-0.001-0.029-0.001-0.277 0-0.501 0.224-0.501 0.501s0.224 0.501 0.501 0.501c0.010 0 0.020-0 0.030-0.001l-0.001 0h5.064c0.23 0.869 1.009 1.5 1.935 1.5h0c0.926-0.001 1.704-0.631 1.93-1.486l0.003-0.014h1.066c0.003 0 0.006 0 0.009 0 0.277 0 0.501-0.224 0.501-0.501 0-0.002-0-0.005-0-0.007v0c-0.005-0.273-0.227-0.492-0.501-0.492-0.003 0-0.006 0-0.009 0h-1.064c-0.23-0.869-1.009-1.5-1.935-1.5h-0zM10.023 5.023c0.552 0 1 0.448 1 1v0c0 0.552-0.448 1-1 1v0c-0.552 0-1-0.448-1-1v0c0-0.552 0.448-1 1-1v0zM6.023 8.023c-0.926 0-1.706 0.631-1.932 1.486l-0.003 0.014h-1.092c-0.009-0.001-0.019-0.001-0.029-0.001-0.277 0-0.501 0.224-0.501 0.501s0.224 0.501 0.501 0.501c0.010 0 0.020-0 0.030-0.001l-0.001 0h1.092c0.23 0.869 1.009 1.5 1.936 1.5h0c0.926-0.001 1.704-0.631 1.93-1.486l0.003-0.014h5.039c0.003 0 0.006 0 0.009 0 0.277 0 0.501-0.224 0.501-0.501 0-0.002-0-0.005-0-0.007v0c-0.005-0.273-0.227-0.492-0.501-0.492-0.003 0-0.006 0-0.009 0h-5.039c-0.23-0.869-1.008-1.499-1.933-1.5h-0zM6.023 9.023c0.552 0 1 0.448 1 1v0c0 0.552-0.448 1-1 1v0c-0.552 0-1-0.448-1-1v0c0-0.552 0.448-1 1-1v0z"></path>
</svg>
