<!-- Generated by IcoMoon.io -->
<svg version="1.1" xmlns="http://www.w3.org/2000/svg" width="16" height="16" viewBox="0 0 16 16">
<title>SettingsAlt</title>
<path d="M8 0c-4.418 0-8 3.582-8 8v0c0 4.418 3.582 8 8 8v0c4.418 0 8-3.582 8-8v0c0-4.418-3.582-8-8-8v0zM8 1c3.866 0 7 3.134 7 7v0c0 3.866-3.134 7-7 7v0c-3.866 0-7-3.134-7-7v0c0-3.866 3.134-7 7-7v0zM5.992 2.49c-0.273 0.005-0.492 0.227-0.492 0.501 0 0.003 0 0.006 0 0.009v-0 1.064c-0.869 0.23-1.5 1.009-1.5 1.936v0c0.001 0.926 0.631 1.704 1.486 1.93l0.014 0.003v5.066c-0.001 0.009-0.001 0.019-0.001 0.029 0 0.277 0.224 0.501 0.501 0.501s0.501-0.224 0.501-0.501c0-0.010-0-0.020-0.001-0.030l0 0.001v-5.064c0.869-0.23 1.5-1.009 1.5-1.936v-0c-0.001-0.926-0.631-1.704-1.486-1.93l-0.014-0.003v-1.066c0-0.003 0-0.006 0-0.009 0-0.277-0.224-0.501-0.501-0.501-0.002 0-0.005 0-0.007 0h0zM9.992 2.518c-0.273 0.005-0.492 0.227-0.492 0.501 0 0.003 0 0.006 0 0.009v-0 5.039c-0.869 0.23-1.499 1.008-1.5 1.933v0c0 0.927 0.631 1.706 1.486 1.932l0.014 0.003v1.092c-0.001 0.009-0.001 0.019-0.001 0.029 0 0.277 0.224 0.501 0.501 0.501s0.501-0.224 0.501-0.501c0-0.010-0-0.020-0.001-0.030l0 0.001v-1.092c0.869-0.23 1.5-1.009 1.5-1.935v-0c-0.001-0.926-0.631-1.704-1.486-1.93l-0.014-0.003v-5.039c0-0.003 0-0.006 0-0.009 0-0.277-0.224-0.501-0.501-0.501-0.002 0-0.005 0-0.007 0h0zM6 5c0.552 0 1 0.448 1 1v0c0 0.552-0.448 1-1 1v0c-0.552 0-1-0.448-1-1v0c0-0.552 0.448-1 1-1v0zM10 9c0.552 0 1 0.448 1 1v0c0 0.552-0.448 1-1 1v0c-0.552 0-1-0.448-1-1v0c0-0.552 0.448-1 1-1v0z"></path>
</svg>
