<!-- Generated by IcoMoon.io -->
<svg version="1.1" xmlns="http://www.w3.org/2000/svg" width="16" height="16" viewBox="0 0 16 16">
<title>Theme</title>
<path d="M7.992 0.492c-0.273 0.004-0.492 0.227-0.492 0.5 0 0.003 0 0.005 0 0.008v-0 2c-0 0.002-0 0.005-0 0.007 0 0.276 0.224 0.5 0.5 0.5s0.5-0.224 0.5-0.5c0-0.002-0-0.005-0-0.007v0-2c0-0.002 0-0.005 0-0.008 0-0.276-0.224-0.5-0.5-0.5-0.003 0-0.005 0-0.008 0h0zM3.008 2.539c-0.262 0.018-0.468 0.235-0.468 0.5 0 0.147 0.064 0.28 0.165 0.371l0 0 1.414 1.414c0.091 0.095 0.219 0.154 0.361 0.154 0.276 0 0.5-0.224 0.5-0.5 0-0.142-0.059-0.27-0.154-0.361l-0-0-1.414-1.414c-0.011-0.012-0.023-0.024-0.035-0.035l-0-0c-0.089-0.081-0.207-0.13-0.337-0.13-0.011 0-0.023 0-0.034 0.001l0.002-0zM12.949 2.553c-0.136 0.003-0.258 0.060-0.346 0.15l-1.414 1.414c-0.095 0.091-0.154 0.219-0.154 0.361 0 0.276 0.224 0.5 0.5 0.5 0.142 0 0.27-0.059 0.361-0.154l0-0 1.414-1.414c0.093-0.091 0.151-0.218 0.151-0.358s-0.058-0.267-0.151-0.358l-0-0c-0.090-0.087-0.213-0.141-0.348-0.141-0.005 0-0.009 0-0.014 0l0.001-0zM8 4c-2.209 0-4 1.791-4 4v0c0 2.209 1.791 4 4 4v0c2.209 0 4-1.791 4-4v0c0-2.209-1.791-4-4-4v0zM8 5v6c-1.657 0-3-1.343-3-3v0c0-1.657 1.343-3 3-3v0zM0.949 7.5c-0.265 0.014-0.475 0.232-0.475 0.5 0 0.277 0.224 0.501 0.501 0.501 0.009 0 0.018-0 0.027-0.001l-0.001 0h2c0.002 0 0.005 0 0.007 0 0.276 0 0.5-0.224 0.5-0.5s-0.224-0.5-0.5-0.5c-0.002 0-0.005 0-0.007 0h-2c-0.008-0-0.016-0.001-0.025-0.001s-0.018 0-0.027 0.001l0.001-0zM12.949 7.5c-0.265 0.014-0.475 0.232-0.475 0.5 0 0.277 0.224 0.501 0.501 0.501 0.009 0 0.018-0 0.027-0.001l-0.001 0h2c0.002 0 0.005 0 0.007 0 0.276 0 0.5-0.224 0.5-0.5s-0.224-0.5-0.5-0.5c-0.002 0-0.005 0-0.007 0h-2c-0.008-0-0.016-0.001-0.025-0.001s-0.018 0-0.027 0.001l0.001-0zM11.543 11.025c-0.005-0-0.011-0-0.017-0-0.277 0-0.501 0.224-0.501 0.501 0 0.147 0.063 0.279 0.164 0.37l0 0 1.414 1.414c0.091 0.095 0.219 0.154 0.361 0.154 0.276 0 0.5-0.224 0.5-0.5 0-0.142-0.059-0.27-0.154-0.361l-0-0-1.414-1.414c-0.011-0.013-0.023-0.025-0.035-0.037l-0-0c-0.084-0.076-0.196-0.123-0.318-0.127l-0.001-0zM4.463 11.037c-0.135 0.004-0.256 0.062-0.344 0.152l-1.414 1.414c-0.095 0.091-0.154 0.219-0.154 0.361 0 0.276 0.224 0.5 0.5 0.5 0.142 0 0.27-0.059 0.361-0.154l0-0 1.414-1.414c0.094-0.091 0.152-0.218 0.152-0.359s-0.058-0.268-0.152-0.359l-0-0c-0.090-0.087-0.213-0.141-0.348-0.141-0.005 0-0.011 0-0.016 0l0.001-0zM7.992 12.492c-0.273 0.004-0.492 0.227-0.492 0.5 0 0.003 0 0.005 0 0.008v-0 2c-0 0.002-0 0.005-0 0.007 0 0.276 0.224 0.5 0.5 0.5s0.5-0.224 0.5-0.5c0-0.002-0-0.005-0-0.007v0-2c0-0.002 0-0.005 0-0.008 0-0.276-0.224-0.5-0.5-0.5-0.003 0-0.005 0-0.008 0h0z"></path>
</svg>
