<!-- Generated by IcoMoon.io -->
<svg version="1.1" xmlns="http://www.w3.org/2000/svg" width="16" height="16" viewBox="0 0 16 16">
<title>UserGroup</title>
<path d="M1 2v12h14v-10h-7l-2-2h-5zM8 4.697c0 0 0 0 0.001 0 0.947 0 1.714 0.768 1.714 1.714 0 0 0 0 0 0.001v-0c0 0 0 0 0 0.001 0 0.947-0.768 1.714-1.714 1.714-0 0-0 0-0.001 0h0c-0 0-0 0-0.001 0-0.947 0-1.714-0.768-1.714-1.714 0-0 0-0 0-0.001v0c0-0 0-0 0-0.001 0-0.947 0.768-1.714 1.714-1.714 0 0 0 0 0.001 0h-0zM6.484 7.998c0.368 0.428 0.91 0.698 1.515 0.699h0c0.605-0.001 1.147-0.27 1.513-0.695l0.002-0.003c0.804 0.503 1.342 1.389 1.342 2.412v2.285h-5.715v-2.285c0-1.023 0.537-1.911 1.342-2.414z"></path>
</svg>
