<!-- Generated by IcoMoon.io -->
<svg version="1.1" xmlns="http://www.w3.org/2000/svg" width="16" height="16" viewBox="0 0 16 16">
<title>Users</title>
<path d="M5.285 2c-1.42 0.001-2.57 1.152-2.57 2.571 0 0 0 0.001 0 0.001v-0c0.001 1.419 1.151 2.57 2.57 2.57h0c0 0 0.001 0 0.001 0 1.42 0 2.571-1.151 2.571-2.57v-0c0-0 0-0.001 0-0.001 0-1.42-1.151-2.571-2.571-2.571-0 0-0.001 0-0.001 0h0zM11.445 2.047c-1.178 0-2.133 0.955-2.133 2.133v0c0 1.178 0.955 2.133 2.133 2.133h0c1.178-0 2.133-0.955 2.133-2.133v-0c-0-1.178-0.955-2.133-2.133-2.133h-0zM9.559 6.154c-0.307 0.192-0.576 0.433-0.811 0.705 0.94 0.844 1.537 2.056 1.537 3.426v1.715h4.715v-2.844c0-1.273-0.669-2.376-1.67-3.002-0.458 0.532-1.132 0.868-1.885 0.869h-0c-0.753-0.001-1.428-0.336-1.884-0.866l-0.003-0.003zM3.012 6.951c-1.207 0.755-2.012 2.087-2.012 3.621v3.428h8.572v-3.428c0-1.534-0.807-2.864-2.014-3.619-0.553 0.642-1.366 1.046-2.273 1.047h-0c-0.908-0.002-1.721-0.406-2.27-1.045l-0.003-0.004z"></path>
</svg>
