<!-- Generated by IcoMoon.io -->
<svg version="1.1" xmlns="http://www.w3.org/2000/svg" width="16" height="16" viewBox="0 0 16 16">
<title>Workgroup</title>
<path d="M5 1c0 0.667 0 1.333 0 2-0.667 0-1.333 0-2 0 0 2 0 4 0 6-1 0-2 0-3 0 0 1.333 0 2.667 0 4 0.667 0 1.333 0 2 0 0 0.333 0 0.667 0 1-0.333 0-0.667 0-1 0 0 0.333 0 0.667 0 1 1.333 0 2.667 0 4 0 0-0.333 0-0.667 0-1-0.333 0-0.667 0-1 0 0-0.333 0-0.667 0-1 0.667 0 1.333 0 2 0 0-1.333 0-2.667 0-4-0.667 0-1.333 0-2 0 0-1.667 0-3.333 0-5 0.333 0 0.667 0 1 0 0 0.333 0 0.667 0 1 0.667 0 1.333 0 2 0 0 0.333 0 0.667 0 1-0.333 0-0.667 0-1 0 0 0.333 0 0.667 0 1 1.333 0 2.667 0 4 0 0-0.333 0-0.667 0-1-0.333 0-0.667 0-1 0 0-0.333 0-0.667 0-1 0.667 0 1.333 0 2 0 0-0.333 0-0.667 0-1 0.333 0 0.667 0 1 0 0 1.667 0 3.333 0 5-0.667 0-1.333 0-2 0 0 1.333 0 2.667 0 4 0.667 0 1.333 0 2 0 0 0.333 0 0.667 0 1-0.333 0-0.667 0-1 0 0 0.333 0 0.667 0 1 1.333 0 2.667 0 4 0 0-0.333 0-0.667 0-1-0.333 0-0.667 0-1 0 0-0.333 0-0.667 0-1 0.667 0 1.333 0 2 0 0-1.333 0-2.667 0-4-1 0-2 0-3 0 0-2 0-4 0-6-0.667 0-1.333 0-2 0 0-0.667 0-1.333 0-2-2 0-4 0-6 0zM6 2c1.333 0 2.667 0 4 0 0 0.667 0 1.333 0 2-1.333 0-2.667 0-4 0 0-0.667 0-1.333 0-2zM1 10c1.333 0 2.667 0 4 0 0 0.667 0 1.333 0 2-1.333 0-2.667 0-4 0 0-0.667 0-1.333 0-2zM11 10c1.333 0 2.667 0 4 0 0 0.667 0 1.333 0 2-1.333 0-2.667 0-4 0 0-0.667 0-1.333 0-2z"></path>
</svg>
