<!-- Generated by IcoMoon.io -->
<svg version="1.1" xmlns="http://www.w3.org/2000/svg" width="16" height="16" viewBox="0 0 16 16">
<title>ZoomIn</title>
<path d="M6.25 1c-2.9 0-5.25 2.35-5.25 5.25s2.35 5.25 5.25 5.25c1.3 0 2.489-0.473 3.406-1.256-0.014 0.296 0.129 0.663 0.438 1.006l2.82 3.316c0.483 0.536 1.271 0.581 1.752 0.1s0.437-1.27-0.1-1.752l-3.316-2.82c-0.343-0.309-0.71-0.451-1.006-0.438 0.783-0.917 1.256-2.106 1.256-3.406 0-2.9-2.35-5.25-5.25-5.25zM6.25 2.75c1.933 0 3.5 1.567 3.5 3.5s-1.567 3.5-3.5 3.5c-1.933 0-3.5-1.567-3.5-3.5s1.567-3.5 3.5-3.5zM5.75 4.25v1.5h-1.5v1h1.5v1.5h1v-1.5h1.5v-1h-1.5v-1.5h-1z"></path>
</svg>
